<svg width="17" height="11" viewBox="0 0 17 11" fill="none" xmlns="http://www.w3.org/2000/svg">
<path fill-rule="evenodd" clip-rule="evenodd" d="M15.7695 0H14.808C14.2769 0 13.8464 0.447715 13.8464 1V9.66667C13.8464 10.219 14.2769 10.6667 14.808 10.6667H15.7695C16.3006 10.6667 16.7311 10.219 16.7311 9.66667V1C16.7311 0.447715 16.3006 0 15.7695 0ZM10.3207 2.33334H11.2822C11.8133 2.33334 12.2437 2.78106 12.2437 3.33334V9.66668C12.2437 10.219 11.8133 10.6667 11.2822 10.6667H10.3207C9.78963 10.6667 9.35913 10.219 9.35913 9.66668V3.33334C9.35913 2.78106 9.78963 2.33334 10.3207 2.33334ZM6.79478 4.66667H5.83324C5.3022 4.66667 4.8717 5.11438 4.8717 5.66667V9.66667C4.8717 10.219 5.3022 10.6667 5.83324 10.6667H6.79478C7.32582 10.6667 7.75632 10.219 7.75632 9.66667V5.66667C7.75632 5.11438 7.32582 4.66667 6.79478 4.66667ZM2.3076 6.66667H1.34606C0.815017 6.66667 0.384521 7.11438 0.384521 7.66667V9.66667C0.384521 10.219 0.815017 10.6667 1.34606 10.6667H2.3076C2.83864 10.6667 3.26914 10.219 3.26914 9.66667V7.66667C3.26914 7.11438 2.83864 6.66667 2.3076 6.66667Z" fill="#1B1E28"/>
</svg>
