<svg width="16" height="11" viewBox="0 0 16 11" fill="none" xmlns="http://www.w3.org/2000/svg">
<path fill-rule="evenodd" clip-rule="evenodd" d="M7.87218 2.28448C10.0113 2.28457 12.0687 3.13869 13.6191 4.67028C13.7358 4.78852 13.9224 4.78703 14.0374 4.66693L15.1534 3.4966C15.2116 3.43569 15.244 3.35318 15.2436 3.26733C15.2431 3.18148 15.2097 3.09937 15.1508 3.03917C11.0816 -1.01306 4.66209 -1.01306 0.592939 3.03917C0.533995 3.09933 0.50055 3.18141 0.500007 3.26726C0.499463 3.35311 0.531865 3.43565 0.590043 3.4966L1.70634 4.66693C1.82124 4.78721 2.00799 4.7887 2.12467 4.67028C3.6752 3.13859 5.73281 2.28447 7.87218 2.28448ZM7.87218 6.09206C9.04751 6.09199 10.1809 6.54594 11.0521 7.36571C11.17 7.48206 11.3556 7.47954 11.4705 7.36003L12.5851 6.1897C12.6438 6.12831 12.6764 6.04504 12.6756 5.9585C12.6747 5.87196 12.6405 5.78939 12.5806 5.72926C9.92759 3.16485 5.81902 3.16485 3.16598 5.72926C3.10605 5.78939 3.07186 5.87201 3.07108 5.95857C3.07029 6.04513 3.10297 6.1284 3.1618 6.1897L4.27616 7.36003C4.39103 7.47954 4.57666 7.48206 4.69449 7.36571C5.56514 6.54648 6.69763 6.09257 7.87218 6.09206ZM10.1047 8.65389C10.1064 8.74067 10.0736 8.82433 10.014 8.88513L8.0858 10.9071C8.02928 10.9665 7.95221 11 7.87181 11C7.7914 11 7.71434 10.9665 7.65782 10.9071L5.72932 8.88513C5.66975 8.82429 5.63697 8.7406 5.63874 8.65382C5.64051 8.56704 5.67666 8.48486 5.73865 8.42669C6.97006 7.34442 8.77356 7.34442 10.005 8.42669C10.0669 8.48491 10.103 8.56711 10.1047 8.65389Z" fill="#1B1E28"/>
</svg>
